<svg id="Layer_3" height="512" viewBox="0 0 64 64" width="512" xmlns="http://www.w3.org/2000/svg" data-name="Layer 3"><path d="m9 57.04h18a5.032 5.032 0 0 0 4.921-4.04h-27.86a5.047 5.047 0 0 0 4.939 4.04z"/><path d="m10 59a2 2 0 0 0 2 2h12a2 2 0 0 0 2-2v-.04h-16z"/><path d="m4 29c-.014 0-.026 0-.04 0v18h.04 27a15.9 15.9 0 0 1 1.04-5.624v-12.376c-.014 0-.026 0-.04 0zm20.96 10a6.96 6.96 0 0 1 -13.92 0v-2a.96.96 0 0 1 1.264-.911l1.769.59a12.815 12.815 0 0 1 2.127-6.212.961.961 0 0 1 1.691.176l.661 1.652a10.582 10.582 0 0 0 2.959 4.134l.577-1.733a.96.96 0 0 1 .843-.654.984.984 0 0 1 .927.528l.367.734a7.006 7.006 0 0 1 .734 3.112z"/><path d="m22.911 38.3a.961.961 0 0 1 -1.444.495 12.513 12.513 0 0 1 -4.6-5.557 10.919 10.919 0 0 0 -.907 4.362v.4a.96.96 0 0 1 -1.264.911l-1.736-.579v.668a5.04 5.04 0 0 0 10.08 0v-.584c0-.147-.007-.294-.02-.44z"/><path d="m42 23h10v4h-10z"/><path d="m45 2h4v19h-4z"/><path d="m32 25h-28a1 1 0 0 0 0 2h28a1 1 0 0 0 0-2z"/><path d="m24 12.04c.338 0 .672.018 1 .051v-2.091h-7a1 1 0 0 1 -1-1v-3a1 1 0 0 1 1-1h7a2 2 0 0 0 -2-2h-10a2 2 0 0 0 -2 2v7.091a10.007 10.007 0 0 1 1-.051z"/><path d="m47 31a15.9 15.9 0 0 1 2 .139v-2.139h-4v2.125a16.1 16.1 0 0 1 2-.125z"/><path d="m32 23h.04v-1a8.049 8.049 0 0 0 -8.04-8.04h-12a8.049 8.049 0 0 0 -8.04 8.04v1h.04z"/><path d="m31.139 49h-27.139a1 1 0 0 0 0 2h27.527a15.741 15.741 0 0 1 -.388-2z"/><path d="m47 33a14 14 0 1 0 14 14 14.015 14.015 0 0 0 -14-14zm11.778 11.692-1.963.383a10.077 10.077 0 0 0 -.515-1.758l1.861-.734a12.094 12.094 0 0 1 .617 2.109zm-2.946-5.816a12.046 12.046 0 0 1 1.334 1.745l-1.693 1.065a10.19 10.19 0 0 0 -1.113-1.457zm-7.709-3.825a11.907 11.907 0 0 1 2.162.4l-.548 1.924a9.859 9.859 0 0 0 -1.8-.335zm-2.2 0 .178 1.992a9.991 9.991 0 0 0 -1.8.328l-.536-1.928a12.16 12.16 0 0 1 2.163-.396zm-4.216 1.178.882 1.8a9.78 9.78 0 0 0 -1.561.955l-1.2-1.6a11.927 11.927 0 0 1 1.884-1.159zm-3.507 2.61 1.47 1.361a10.22 10.22 0 0 0 -1.12 1.451l-1.687-1.072a12.027 12.027 0 0 1 1.337-1.74zm-2.345 3.694 1.856.744a9.942 9.942 0 0 0 -.522 1.755l-1.961-.392a11.869 11.869 0 0 1 .631-2.107zm-.855 4.467v-.181l2 .037v.144a9.916 9.916 0 0 0 .142 1.676l-1.971.34a11.961 11.961 0 0 1 -.171-2.016zm1.74 6.122a11.351 11.351 0 0 1 -.986-1.976l1.869-.714a9.3 9.3 0 0 0 .812 1.628zm2.986 3.208a12.165 12.165 0 0 1 -1.641-1.461l1.462-1.369a10.092 10.092 0 0 0 1.369 1.219zm2.91 1.6c-.338-.132-.668-.279-.99-.436l.877-1.8q.411.2.841.369zm8.728 0-.728-1.864q.431-.168.841-.369l.877 1.8c-.322.156-.654.303-.99.435zm-4.364-4.93a6 6 0 0 1 -1-11.91v-3.09h2v11h-2v-5.858a3.982 3.982 0 1 0 3.4.658l1.2-1.6a6 6 0 0 1 -3.6 10.8zm4.443-14.961.891-1.791a12.042 12.042 0 0 1 1.866 1.152l-1.2 1.6a10.071 10.071 0 0 0 -1.557-.961zm2.788 18.322-1.182-1.613a10.056 10.056 0 0 0 1.374-1.212l1.455 1.371a12.008 12.008 0 0 1 -1.647 1.454zm3-3.195-1.689-1.066a9.466 9.466 0 0 0 .82-1.623l1.864.722a11.312 11.312 0 0 1 -.995 1.967zm-.38-4.446a9.916 9.916 0 0 0 .149-1.72v-.1l2-.025v.125a11.877 11.877 0 0 1 -.18 2.069z"/></svg>