<?xml version="1.0" encoding="UTF-8"?>
<svg xmlns="http://www.w3.org/2000/svg" viewBox="0 0 64 64" width="512" height="512"><g id="Layer_31" data-name="Layer 31"><path d="M60,42H55V30a4.947,4.947,0,0,0-.313-1.687L58,25l-.745-.745L60.926,21.2A5.767,5.767,0,0,0,57.232,11H25a4,4,0,0,0-4,4,2,2,0,0,1-2,2H10.843a3.533,3.533,0,0,0-2.8-2.493L5,14v1H2v2H5v2H2v2H5v1l3.041-.507A3.533,3.533,0,0,0,10.843,19H19a4,4,0,0,0,4-4,2,2,0,0,1,2-2H57.232a3.768,3.768,0,0,1,2.414,6.661l-3.81,3.175L55,22l-3.313,3.313A4.947,4.947,0,0,0,50,25H25.837a10,10,0,0,0-6.689,2.567L8.69,36.979A22.948,22.948,0,0,0,2.808,47H62V44A2,2,0,0,0,60,42Zm-9,0H37V39a1.147,1.147,0,0,0-1.25-1h-7.5A1.147,1.147,0,0,0,27,39v3H13a6.4,6.4,0,0,1,2.3-4.921L22.5,31.086A9,9,0,0,1,28.258,29H48a3,3,0,0,1,3,3Z"/><path d="M2,52H62V49H2.315A15.831,15.831,0,0,0,2,52Z"/></g></svg>
