<svg height="512pt" viewBox="-102 0 512 512" width="512pt" xmlns="http://www.w3.org/2000/svg"><path d="m179.199219 34.132812h-51.199219c-9.414062.027344-17.039062 7.652344-17.066406 17.066407v17.066406c.027344 9.414063 7.652344 17.039063 17.066406 17.066406h51.199219c9.414062-.027343 17.039062-7.652343 17.066406-17.066406v-17.066406c-.027344-9.414063-7.652344-17.039063-17.066406-17.066407zm0 34.132813h-51.199219v-17.066406h51.199219zm0 0"/><path d="m204.800781 0h-102.402343c-14.121094.0429688-25.554688 11.480469-25.597657 25.601562v78.335938c-44.488281 8.28125-76.7617185 47.078125-76.800781 92.328125v187.734375c0 31.753906 16.050781 61.355469 42.667969 78.675781v15.191407c0 18.851562 15.28125 34.132812 34.132812 34.132812h153.597657c18.851562 0 34.136718-15.28125 34.136718-34.132812v-15.191407c26.613282-17.320312 42.667969-46.921875 42.664063-78.675781v-187.734375c-.039063-45.25-32.3125-84.046875-76.800781-92.328125v-78.335938c-.039063-14.121093-11.476563-25.5585932-25.597657-25.601562zm-110.933593 25.601562c0-4.714843 3.820312-8.535156 8.53125-8.535156h102.402343c4.710938 0 8.53125 3.820313 8.53125 8.535156v76.796876h-119.464843zm5.375 266.921876c3.078124-2.667969 7.523437-3.046876 11.007812-.9375 3.476562 2.25 4.960938 6.585937 3.585938 10.492187-1.367188 2.855469-1.582032 6.125-.597657 9.132813.511719.769531 2.386719 1.621093 6.226563 1.621093 2.648437 0 5.121094 0 5.121094-7.679687-.980469-4.96875-3.050782-9.660156-6.058594-13.738282-6.519532-9.304687-10.332032-20.234374-11.007813-31.574218 0-23.464844 14.335938-59.820313 45.054688-63.488282 4.320312-.546874 8.457031 1.917969 10.03125 5.976563s.183593 8.667969-3.375 11.175781c-3.964844 2.265625-6.671875 6.230469-7.335938 10.753906 0 12.796876 13.226563 23.464844 28.585938 35.839844 22.273437 17.832032 49.917969 40.105469 49.917969 80.636719 0 37.804687-28.671876 60.332031-76.796876 60.332031-48.128906 0-76.800781-22.527344-76.800781-60.332031.796875-18.40625 8.871094-35.75 22.441407-48.210937zm131.5 183.722656c1.363281-.257813 2.816406-.597656 4.265624-.9375 1.449219-.34375 2.816407-.683594 4.179688-1.109375 1.421875-.339844 2.820312-.765625 4.183594-1.28125 1.363281-.425781 2.730468-.9375 4.09375-1.453125v6.402344c-.027344 9.414062-7.652344 17.039062-17.066406 17.066406h-153.597657c-9.414062-.027344-17.039062-7.652344-17.066406-17.066406v-6.402344c1.363281.515625 2.730469 1.027344 4.09375 1.453125 1.367187.515625 2.761719.941406 4.183594 1.28125 1.363281.425781 2.816406.765625 4.179687 1.109375 1.367188.339844 2.902344.679687 4.265625.9375 5.738281 1.09375 11.570313 1.636718 17.410157 1.621094h119.464843c5.84375.015624 11.671875-.527344 17.410157-1.621094zm0 0"/><path d="m153.601562 384c22.269532 0 59.730469-5.632812 59.730469-43.265625 0-32.339844-22.101562-50.175781-43.519531-67.328125-17.238281-13.90625-33.621094-27.050781-34.902344-46.675781-6.503906 9.835937-10.085937 21.316406-10.324218 33.109375.753906 8.261718 3.734374 16.164062 8.621093 22.871094 4.792969 6.578124 7.710938 14.335937 8.445313 22.441406.863281 6.339844-1.097656 12.738281-5.371094 17.503906-4.269531 4.761719-10.417969 7.410156-16.816406 7.242188-7.75.675781-15.320313-2.59375-20.136719-8.703126-.09375-.160156-.207031-.300781-.339844-.425781-3.253906 6.160157-5.007812 13-5.121093 19.964844 0 37.632813 37.460937 43.265625 59.734374 43.265625zm0 0"/></svg>