<svg id="Capa_1" enable-background="new 0 0 512 512" height="512" viewBox="0 0 512 512" width="512" xmlns="http://www.w3.org/2000/svg"><g><g><path d="m98.673 45.14h269.572v394.277h-269.572z" fill="#f6e266"/></g><g><path d="m295.575 45.14h72.67v394.277h-72.67z" fill="#f1d333"/></g><g><g><path d="m382.157 439.417h-32.676v-375.513h-232.044v375.513h-37.528v-398.485c0-8.039 6.517-14.556 14.556-14.556h277.988c8.039 0 14.556 6.517 14.556 14.556v393.633c0 2.68-2.172 4.852-4.852 4.852z" fill="#407093"/></g></g><g><path d="m117.24 64.139-70.554-36.26c-1.921-.987-4.05-1.502-6.21-1.502h-23.494c-5.359 0-9.704 4.345-9.704 9.704v439.839c0 5.359 4.345 9.704 9.704 9.704h22.863c2.559 0 5.066-.723 7.232-2.085l70.359-44.121z" fill="#365e7d"/></g><g><g><path d="m372.453 26.376h-16.792c8.039 0 14.556 6.517 14.556 14.556v393.633c0 2.68-2.172 4.852-4.852 4.852h16.792c2.68 0 4.852-2.172 4.852-4.852v-393.633c0-8.039-6.517-14.556-14.556-14.556z" fill="#365e7d"/></g></g><g><path d="m503.059 304.045-75.233-75.233c-3.591-3.591-9.732-1.048-9.732 4.031v42.407c0 1.072-.869 1.941-1.941 1.941h-173.867c-2.68 0-4.852 2.172-4.852 4.852v52.066c0 2.68 2.172 4.852 4.852 4.852h173.867c1.072 0 1.941.869 1.941 1.941v42.407c0 5.079 6.14 7.622 9.732 4.031l75.233-75.233c2.226-2.226 2.226-5.836 0-8.062z" fill="#86f1a7"/></g><g><path d="m486.881 287.867-68.786 68.786v26.656c0 5.079 6.14 7.622 9.732 4.031l75.233-75.233c2.226-2.226 2.226-5.836 0-8.062z" fill="#78d0b1"/></g><path d="m117.24 64.139-24.982-12.839v371.26c0 2.339-1.203 4.513-3.184 5.755l-41.996 26.335c-2.166 1.362-4.673 2.085-7.232 2.085h-32.568v19.184c0 5.36 4.345 9.704 9.704 9.704h22.863c2.559 0 5.066-.723 7.232-2.085l70.359-44.121z" fill="#2b4d66"/><path d="m41.509 485.515v-459.077c-.344-.026-.687-.062-1.034-.062h-23.493c-5.359 0-9.704 4.345-9.704 9.704v439.839c0 5.36 4.345 9.704 9.704 9.704h22.863c.559 0 1.114-.04 1.664-.108z" fill="#407093"/><path d="m39.846 456.735h-32.568v19.184c0 5.36 4.345 9.704 9.704 9.704h22.863c.558 0 1.113-.041 1.664-.108v-28.889c-.55.068-1.105.109-1.663.109z" fill="#365e7d"/><g><path d="m508.206 298.899-75.233-75.232c-3.723-3.725-9.275-4.831-14.144-2.815-4.867 2.016-8.013 6.723-8.013 11.991v37.071h-16.529v-228.981c0-12.039-9.795-21.834-21.834-21.834h-175.268c-4.02 0-7.278 3.258-7.278 7.278s3.259 7.278 7.278 7.278h175.267c4.013 0 7.278 3.265 7.278 7.278v228.981h-22.971v-206.01c0-4.02-3.258-7.278-7.278-7.278h-230.935l-31.338-16.105c.215-3.821 3.383-6.867 7.257-6.867h67.067c4.02 0 7.278-3.258 7.278-7.278s-3.259-7.278-7.278-7.278h-67.067c-9.494 0-17.588 6.093-20.588 14.572l-23.864-12.264c-2.936-1.51-6.234-2.308-9.537-2.308h-23.494c-9.364.001-16.982 7.619-16.982 16.983v439.839c0 9.364 7.618 16.982 16.982 16.982h22.863c3.934 0 7.774-1.107 11.107-3.202l68.386-43.004h262.819c6.689 0 12.13-5.441 12.13-12.13v-88.326h16.529v37.071c0 5.268 3.145 9.975 8.013 11.991 4.813 2.003 10.406.933 14.144-2.814l75.234-75.234c5.058-5.062 5.057-13.295-.001-18.355zm-459.419 174.967v-77.333c0-4.02-3.259-7.278-7.278-7.278s-7.278 3.258-7.278 7.278v81.813h-17.249c-1.338 0-2.426-1.088-2.426-2.426v-439.839c0-1.338 1.088-2.426 2.426-2.426h17.249v327.672c0 4.02 3.259 7.278 7.278 7.278s7.278-3.258 7.278-7.278v-324.185l61.175 31.439v366.815zm330.943-41.727h-22.971v-85.9h22.971zm45.642-52.638v-38.599c0-5.083-4.136-9.219-9.219-9.219h-114.165c-4.02 0-7.278 3.258-7.278 7.278s3.258 7.278 7.278 7.278h40.215v85.9h-217.488v-360.957h217.488v198.731h-99.916c-6.689 0-12.13 5.441-12.13 12.13v52.065c0 6.689 5.441 12.13 12.13 12.13h24.706c4.02 0 7.278-3.258 7.278-7.278s-3.258-7.278-7.278-7.278h-22.28v-47.212h171.44c5.083 0 9.219-4.136 9.219-9.219v-38.599l71.425 71.426z"/><path d="m74.207 259.76c-6.599 0-11.948 5.35-11.948 11.948 0 6.599 5.349 11.948 11.948 11.948s11.948-5.349 11.948-11.948c.001-6.598-5.349-11.948-11.948-11.948z"/><path d="m264.597 218.479c4.02 0 7.278-3.258 7.278-7.278v-53.382c0-4.02-3.258-7.278-7.278-7.278s-7.278 3.258-7.278 7.278v53.382c-.001 4.02 3.258 7.278 7.278 7.278z"/><path d="m171.933 165.584c4.02 0 7.278-3.258 7.278-7.278s-3.259-7.278-7.278-7.278h-22.288c-4.02 0-7.278 3.258-7.278 7.278v52.895c0 4.02 3.259 7.278 7.278 7.278h22.288c4.02 0 7.278-3.258 7.278-7.278s-3.259-7.278-7.278-7.278h-15.01v-11.891h13.366c4.02 0 7.278-3.258 7.278-7.278s-3.259-7.278-7.278-7.278h-13.366v-11.891h15.01z"/><path d="m231.481 215.632c2.327 3.31 6.891 4.062 10.141 1.765 3.287-2.312 4.078-6.853 1.765-10.14l-17.162-24.396 14.517-20.607c2.315-3.286 1.528-7.827-1.758-10.141-3.286-2.316-7.826-1.528-10.141 1.758l-11.513 16.343-11.494-16.339c-2.313-3.286-6.852-4.079-10.141-1.765-3.287 2.312-4.078 6.853-1.765 10.14l14.495 20.605-17.188 24.398c-2.315 3.286-1.528 7.827 1.758 10.141 3.248 2.3 7.813 1.551 10.141-1.758l14.184-20.135z"/><path d="m293.615 165.341h7.402v46.104c0 4.02 3.258 7.278 7.278 7.278s7.278-3.258 7.278-7.278v-46.104h7.522c4.02 0 7.278-3.258 7.278-7.278s-3.258-7.278-7.278-7.278h-29.48c-4.02 0-7.278 3.258-7.278 7.278s3.258 7.278 7.278 7.278z"/></g></g></svg>