<svg id="Artboard_30" height="512" viewBox="0 0 64 64" width="512" xmlns="http://www.w3.org/2000/svg" data-name="Artboard 30"><path d="m23 30a4 4 0 0 0 8 0v-5h-8z"/><path d="m21 30v-5h-8v5a4 4 0 0 0 8 0z"/><path d="m25 44h8v-5h-11v18h4.1l-2.084-11.827a1 1 0 0 1 .984-1.173z"/><path d="m31 9h-6.117l-1.75 14h7.867z"/><path d="m56 44v-8.09a6.008 6.008 0 0 1 -4-2.6 6.012 6.012 0 0 1 -3.615 2.522l-.79 1.385a.982.982 0 0 1 .405.783v6z"/><path d="m33 30a4 4 0 0 0 8 0v-5h-8z"/><path d="m60.543 23-5.075-13.167a.636.636 0 0 1 -.032-.1 1 1 0 0 0 -.965-.733h-5.191l3.5 14z"/><path d="m46 40.011-2.277 3.989h2.277z"/><path d="m35 44h6.421l2.854-5h-9.275z"/><path d="m42 33.31a5.992 5.992 0 0 1 -10 0 5.992 5.992 0 0 1 -10 0 5.992 5.992 0 0 1 -10 0 6.008 6.008 0 0 1 -4 2.6v21.09h12v-19a1 1 0 0 1 1-1h24.416l.62-1.085a6 6 0 0 1 -4.036-2.605z"/><path d="m51 30v-5h-8v5a4 4 0 0 0 8 0z"/><path d="m26.192 46 2.5 14.174a1 1 0 0 0 .986.826h24.644a1 1 0 0 0 .985-.826l2.502-14.174z"/><path d="m26.456 59h-22.456a1 1 0 0 0 0 2h22.854a2.927 2.927 0 0 1 -.129-.478z"/><path d="m53 25v5a4 4 0 0 0 8 0v-5z"/><path d="m60 59h-2.455l-.269 1.521a3.012 3.012 0 0 1 -.128.479h2.852a1 1 0 0 0 0-2z"/><path d="m7 34a4 4 0 0 0 4-4v-5h-8v5a4 4 0 0 0 4 4z"/><path d="m42.883 23h7.836l-3.499-14h-6.087z"/><path d="m13.8 9h-4.274a1 1 0 0 0 -.964.737.982.982 0 0 1 -.032.1l-5.073 13.163h7.714z"/><path d="m17 3h30v4h-30z"/><path d="m33 9v14h7.867l-1.75-14z"/><path d="m21.117 23 1.75-14h-7.037l-2.625 14z"/></svg>