<?xml version="1.0" encoding="UTF-8"?>
<svg xmlns="http://www.w3.org/2000/svg" viewBox="0 0 64 64" width="512" height="512"><g id="Layer_22" data-name="Layer 22"><path d="M51.6,5.037A8.7,8.7,0,0,0,45,2l-8.01.8a2.21,2.21,0,0,0,0,4.4l.02,0a5.867,5.867,0,0,0,1.7,3.92l.586.586,1.414-1.414-.586-.586a3.84,3.84,0,0,1-1.08-2.3l3.68.368a9.183,9.183,0,0,1,3.465,1.08L41,13H9v1A18,18,0,0,0,25,31.883V36H23a6,6,0,0,0,0,12h2v5.136A6,6,0,0,1,21.483,58.6L14,62H40l-7.483-3.4A6,6,0,0,1,29,53.136V48h.037a7,7,0,0,1,6,3.4L36,53V51a7,7,0,0,0-7-7V40h9A17,17,0,0,0,55,23V14.22A14.109,14.109,0,0,0,51.6,5.037ZM46,6H44V4h2Zm-8,9h2v2H38Zm0,4h2v2H38ZM23,44a2,2,0,0,1,0-4h2v4ZM51,23A13,13,0,0,1,38,36H29V31.883A18,18,0,0,0,44.866,16.107L49.7,12.239A9.178,9.178,0,0,1,51,16.92Z"/></g></svg>
