<?xml version="1.0" encoding="UTF-8"?>
<svg xmlns="http://www.w3.org/2000/svg" id="Layer_3" data-name="Layer 3" viewBox="0 0 64 64" width="512" height="512"><path d="M57.087,16l.416-5H60.5l.416,5ZM60.08,6l.25,3H57.67l.25-3ZM9.247,3H20.753L19.2,10H10.8ZM3.1,12H26.9A5.008,5.008,0,0,1,22,16H8A5.008,5.008,0,0,1,3.1,12ZM14,18h2v2.09a5.6,5.6,0,0,0-2,0Zm1,4a4,4,0,1,1-4,4A4,4,0,0,1,15,22Zm-2,9.65a5.889,5.889,0,0,0,4,0V34H13Zm8.619,19.277a3.481,3.481,0,0,1,.456,6.417l-1.522.761a1,1,0,0,0-.26,1.6L21.586,61H8.414l1.293-1.293a1,1,0,0,0-.26-1.6l-1.522-.761A3.46,3.46,0,0,1,6,54.23,3.512,3.512,0,0,1,8.471,50.9,5.144,5.144,0,0,0,11.892,47h6.217A5.2,5.2,0,0,0,21.619,50.927ZM19.491,44.1,18.586,45H11.414l-.9-.905a5.152,5.152,0,0,1-.965-5.947L10.618,36h8.764l1.074,2.148a5.152,5.152,0,0,1-.965,5.947Zm3.46-4.471a7.212,7.212,0,0,0-.706-2.37l-.2-.4,2.573-2.2,1.941,4.527ZM60,48.5a12.5,12.5,0,0,1-25,0V47a9.991,9.991,0,0,0-7-9.532l-.981-2.288A11.932,11.932,0,0,1,37,47v1.5a10.5,10.5,0,0,0,21,0V18h2Z"/></svg>
